#!OML:ASF F:\VICON\USERDATA\INSTALL\rory3\rory3.ASF
:FULLY-SPECIFIED
:DEGREES
498
root 1.0682 17.5024 27.48 3.16809 5.6198 8.02118
lowerback 4.65411 -1.84941 -12.5576
upperback 0.273312 -3.08461 1.7205
thorax -1.57424 -1.4534 9.07331
lowerneck -13.2706 -4.44122 -15.1011
upperneck 31.1549 -4.68643 7.18526
head 13.2427 -2.93518 4.72603
rclavicle 1.63997e-014 -5.56597e-015
rhumerus -39.1432 -21.2389 -66.9175
rradius 25.7419
rwrist -8.25773
rhand -10.6971 18.4409
rfingers 7.12502
rthumb 15.3123 -10.9722
lclavicle 1.63997e-014 -5.56597e-015
lhumerus -33.5716 3.4586 80.9281
lradius 42.5437
lwrist -0.826134
lhand -1.751 32.8754
lfingers 7.12502
lthumb 23.9122 61.4066
rfemur -31.1984 0.647229 8.84825
rtibia 20.9283
rfoot -17.6481 -15.4325
rtoes 16.2581
lfemur 10.152 -2.34332 -30.4725
ltibia 13.1135
lfoot -11.8232 -6.96235
ltoes -9.95193
499
root 1.06739 17.4836 27.6527 3.20359 5.95765 7.7898
lowerback 4.40987 -1.98025 -12.1559
upperback 0.60777 -3.18607 1.7562
thorax -1.07556 -1.5569 8.86083
lowerneck -13.7197 -4.62574 -15.1827
upperneck 30.9662 -4.92426 7.40732
head 13.3017 -3.00804 4.78322
rclavicle -2.18663e-015 1.35174e-014
rhumerus -38.7835 -21.4982 -67.0794
rradius 25.6015
rwrist -8.31843
rhand -10.8575 18.2261
rfingers 7.12502
rthumb 15.1578 -11.1987
lclavicle -2.18663e-015 1.35174e-014
lhumerus -32.7208 3.39821 80.9211
lradius 42.5774
lwrist -0.71327
lhand -1.76943 32.7598
lfingers 7.12502
lthumb 23.8945 61.2933
rfemur -31.2314 -0.353317 9.35023
rtibia 20.7426
rfoot -17.2805 -14.4203
rtoes 12.6735
lfemur 10.7122 -2.67204 -30.1391
ltibia 13.2058
lfoot -11.8001 -7.24093
ltoes -9.00609
500
root 1.08287 17.4555 27.827 3.08393 6.46314 7.74838
lowerback 5.06698 -2.04983 -11.5621
upperback 0.405514 -3.34567 1.60593
thorax -1.66485 -1.59098 8.40555
lowerneck -13.6151 -4.70444 -15.1247
upperneck 31.076 -5.13523 7.57577
head 13.3576 -3.07849 4.81345
rclavicle -3.57812e-014 -3.33958e-014
rhumerus -39.5593 -21.9942 -66.5895
rradius 25.2605
rwrist -8.02712
rhand -10.9862 18.7542
rfingers 7.12502
rthumb 15.0338 -10.68
lclavicle -3.57812e-014 -3.33958e-014
lhumerus -32.9255 3.15886 80.8062
lradius 42.7656
lwrist -0.807364
lhand -1.62695 32.8038
lfingers 7.12502
lthumb 24.0311 61.3193
rfemur -31.1212 -3.16389 10.2106
rtibia 21.0831
rfoot -16.4436 -11.8095
rtoes 11.561
lfemur 11.5262 -2.96612 -30.0848
ltibia 13.1947
lfoot -12.0307 -7.58246
ltoes -10.8009
501
root 1.03685 17.4241 28.0213 3.23508 6.11603 7.52407
lowerback 4.63508 -1.89358 -11.7759
upperback 0.435159 -3.09062 1.7445
thorax -1.42959 -1.47893 8.64502
lowerneck -15.1924 -4.24857 -13.8619
upperneck 32.4349 -4.25738 6.51032
head 14.0992 -2.69419 4.34387
rclavicle 1.98785e-014 -1.74931e-014
rhumerus -39.8608 -22.7071 -66.0783
rradius 24.8609
rwrist -7.49335
rhand -10.9779 18.845
rfingers 7.12502
rthumb 15.0418 -10.5886
lclavicle 1.98785e-014 -1.74931e-014
lhumerus -32.7661 2.94329 80.8906
lradius 42.9773
lwrist -0.827777
lhand -1.63542 32.7933
lfingers 7.12502
lthumb 24.023 61.3099
rfemur -31.4422 -2.08915 10.4802
rtibia 21.6471
rfoot -16.0399 -12.0354
rtoes 15.0552
lfemur 11.6662 -2.80017 -29.5882
ltibia 13.5429
lfoot -12.5101 -7.53975
ltoes -15.0787
502
root 1.01078 17.3823 28.1858 3.31755 5.84196 7.54218
lowerback 4.65992 -1.81659 -12.001
upperback 0.432927 -3.00131 1.836
thorax -1.45032 -1.43164 8.87186
lowerneck -14.9546 -4.07643 -13.9349
upperneck 31.478 -4.04551 6.67689
head 13.6004 -2.56241 4.42587
rclavicle -3.38928e-014 -3.97569e-015
rhumerus -39.9011 -22.9963 -65.7691
rradius 24.6394
rwrist -7.02877
rhand -10.7785 18.4413
rfingers 7.12502
rthumb 15.2339 -10.9778
lclavicle -3.38928e-014 -3.97569e-015
lhumerus -32.5897 2.93689 81.0019
lradius 43.1934
lwrist -0.724886
lhand -1.48986 33.0477
lfingers 7.12502
lthumb 24.1626 61.5459
rfemur -31.9053 -1.83991 10.5919
rtibia 22.5908
rfoot -15.1091 -11.6107
rtoes 19.0843
lfemur 11.96 -2.95365 -29.5389
ltibia 13.896
lfoot -12.5425 -7.31633
ltoes -17.6823
503
root 0.985511 17.3496 28.3664 3.33376 5.56611 7.60254
lowerback 4.86823 -1.74991 -12.2304
upperback 0.260846 -2.96083 1.87115
thorax -1.74692 -1.38139 9.05657
lowerneck -15.4144 -4.11351 -13.7417
upperneck 32.1086 -3.96241 6.25479
head 13.9549 -2.57185 4.2532
rclavicle 2.21645e-014 -1.66979e-014
rhumerus -40.2559 -22.9156 -65.4872
rradius 24.3576
rwrist -6.78282
rhand -10.6109 18.5617
rfingers 7.12502
rthumb 15.3953 -10.8451
lclavicle 2.21645e-014 -1.66979e-014
lhumerus -32.9143 2.96905 80.9845
lradius 43.4054
lwrist -0.705964
lhand -1.43412 33.2376
lfingers 7.12502
lthumb 24.216 61.7287
rfemur -32.1428 -1.89623 10.8671
rtibia 23.7159
rfoot -13.9737 -11.3322
rtoes 18.4899
lfemur 12.2633 -3.17052 -29.5733
ltibia 14.4617
lfoot -12.3176 -7.25133
ltoes -17.2995
504
root 0.980737 17.3205 28.5479 2.96982 5.77201 7.67741
lowerback 5.42923 -1.77823 -12.1881
upperback 0.295984 -3.06736 1.87988
thorax -2.00117 -1.41932 9.07382
lowerneck -17.6682 -4.2907 -12.9131
upperneck 34.3816 -3.78843 5.09643
head 15.4503 -2.59669 3.71891
rclavicle -2.84262e-014 -1.74931e-014
rhumerus -40.4735 -22.8866 -65.2222
rradius 24.0749
rwrist -6.55598
rhand -10.6763 18.6823
rfingers 7.12502
rthumb 15.3323 -10.7293
lclavicle -2.84262e-014 -1.74931e-014
lhumerus -33.0794 3.06044 81.0331
lradius 43.5389
lwrist -0.756615
lhand -1.65956 32.9706
lfingers 7.12502
lthumb 23.9999 61.4902
rfemur -31.7825 -3.08497 11.3261
rtibia 25.1391
rfoot -13.1588 -10.4539
rtoes 14.6577
lfemur 13.157 -3.3876 -29.618
ltibia 14.8295
lfoot -12.2026 -7.58432
ltoes -18.2536
505
root 0.958504 17.2995 28.7295 2.85449 5.73431 7.61311
lowerback 5.55269 -1.76845 -12.2661
upperback 0.373806 -3.06844 1.98759
thorax -1.9774 -1.42466 9.24019
lowerneck -16.2841 -4.31795 -13.7362
upperneck 33.2838 -3.96006 5.68833
head 14.6765 -2.67367 4.05249
rclavicle 3.16068e-014 2.38542e-015
rhumerus -40.4434 -23.3399 -64.8188
rradius 23.558
rwrist -5.96316
rhand -10.8492 18.3123
rfingers 7.12502
rthumb 15.1657 -11.112
lclavicle 3.16068e-014 2.38542e-015
lhumerus -32.9983 3.26763 81.0982
lradius 43.517
lwrist -0.831026
lhand -1.93467 32.7698
lfingers 7.12502
lthumb 23.7361 61.324
rfemur -31.7444 -2.98153 11.6247
rtibia 26.6433
rfoot -13.0237 -10.2005
rtoes 14.6694
lfemur 13.7641 -3.54501 -29.4585
ltibia 15.0461
lfoot -11.78 -7.83858
ltoes -19.7144
506
root 0.939275 17.2994 28.9273 2.70343 5.68923 7.27326
lowerback 5.74318 -1.7469 -11.9217
upperback 0.222508 -3.04901 2.05354
thorax -2.26451 -1.39095 9.12803
lowerneck -15.3126 -4.25453 -13.9656
upperneck 32.8406 -3.99546 5.84354
head 14.2703 -2.69389 4.14007
rclavicle 1.10325e-014 -8.74653e-015
rhumerus -40.9657 -23.8835 -64.1637
rradius 23.0275
rwrist -5.07794
rhand -10.7089 18.2621
rfingers 7.12502
rthumb 15.3009 -11.1519
lclavicle 1.10325e-014 -8.74653e-015
lhumerus -33.443 3.35032 81.0218
lradius 43.5068
lwrist -1.01296
lhand -2.17964 32.6122
lfingers 7.12502
lthumb 23.5011 61.1966
rfemur -31.4689 -2.72262 12.1661
rtibia 27.8881
rfoot -12.5699 -9.82283
rtoes 17.5477
lfemur 14.3224 -3.85061 -29.0792
ltibia 15.4461
lfoot -11.0004 -7.88263
ltoes -19.2833
507
root 0.92737 17.2996 29.1265 2.47211 5.85545 7.051
lowerback 6.00692 -1.78377 -11.594
upperback 0.196957 -3.10986 2.07225
thorax -2.44118 -1.41176 8.97785
lowerneck -15.1252 -4.17004 -13.8249
upperneck 32.7596 -3.88104 5.6686
head 14.1688 -2.64938 4.06006
rclavicle -2.34566e-014 -2.06736e-014
rhumerus -41.3848 -24.3994 -63.5991
rradius 22.7753
rwrist -4.01984
rhand -10.2393 18.4938
rfingers 7.12502
rthumb 15.7532 -10.8851
lclavicle -2.34566e-014 -2.06736e-014
lhumerus -33.7474 3.55974 80.9283
lradius 43.5328
lwrist -1.32769
lhand -2.30285 32.1427
lfingers 7.12502
lthumb 23.3829 60.7423
rfemur -31.0543 -2.74538 12.4822
rtibia 28.7527
rfoot -11.1064 -9.34065
rtoes 23.2086
lfemur 14.9012 -4.27617 -28.847
ltibia 16.0005
lfoot -10.1652 -8.00834
ltoes -19.1649
508
root 0.915371 17.287 29.2967 2.49938 6.17355 7.38044
lowerback 6.23094 -1.88581 -11.8737
upperback 0.290419 -3.28999 2.00551
thorax -2.41352 -1.50506 9.08496
lowerneck -15.9312 -4.15404 -13.3887
upperneck 33.1213 -3.69634 5.16742
head 14.4676 -2.58468 3.81453
rclavicle -2.74323e-014 -1.03368e-014
rhumerus -41.2135 -25.2507 -63.1571
rradius 22.3719
rwrist -2.84821
rhand -9.9094 18.4114
rfingers 7.12502
rthumb 16.0709 -10.9422
lclavicle -2.74323e-014 -1.03368e-014
lhumerus -33.4672 3.98534 80.8969
lradius 43.2794
lwrist -1.49733
lhand -2.51074 31.637
lfingers 7.12502
lthumb 23.1835 60.2618
rfemur -31.0378 -2.86648 12.0477
rtibia 29.301
rfoot -9.95059 -8.74507
rtoes 4.15656
lfemur 15.0169 -4.9216 -29.2174
ltibia 16.726
lfoot -9.08457 -8.2034
ltoes -18.8602
509
root 0.89335 17.2862 29.5274 2.26365 6.4517 7.08314
lowerback 5.7274 -2.02299 -11.6781
upperback 0.660326 -3.37485 2.10749
thorax -1.72089 -1.61395 9.04505
lowerneck -17.4127 -4.24929 -12.8217
upperneck 34.0765 -3.61946 4.63268
head 15.2147 -2.56944 3.52491
rclavicle 3.02153e-014 5.56597e-015
rhumerus -40.9129 -25.9292 -62.9604
rradius 21.9636
rwrist -2.45216
rhand -9.9515 18.1748
rfingers 7.12502
rthumb 16.0304 -11.1821
lclavicle 3.02153e-014 5.56597e-015
lhumerus -33.0802 4.28729 80.9287
lradius 42.8302
lwrist -1.43976
lhand -2.75161 31.5086
lfingers 7.12502
lthumb 22.9523 60.1623
rfemur -30.3866 -2.60962 12.2847
rtibia 29.5139
rfoot -9.62225 -8.52703
rtoes -1.42627
lfemur 15.3167 -5.47964 -28.8844
ltibia 17.8594
lfoot -8.26751 -8.3063
ltoes -19.3495
510
root 0.865787 17.298 29.7464 2.20509 6.69061 6.80655
lowerback 4.95845 -2.11434 -11.5125
upperback 1.13993 -3.36794 2.18528
thorax -0.786579 -1.69577 8.97345
lowerneck -19.2785 -4.59559 -12.5285
upperneck 35.0218 -3.93599 4.52208
head 16.1421 -2.69273 3.38271
rclavicle -3.42904e-014 -1.66979e-014
rhumerus -40.333 -26.4818 -63.1541
rradius 21.752
rwrist -2.88938
rhand -10.183 17.862
rfingers 7.12502
rthumb 15.8074 -11.5126
lclavicle -3.42904e-014 -1.66979e-014
lhumerus -32.427 4.5419 81.0182
lradius 42.3487
lwrist -1.54367
lhand -2.79562 31.7428
lfingers 7.12502
lthumb 22.9101 60.4017
rfemur -29.8233 -2.2998 12.532
rtibia 29.5755
rfoot -9.42865 -8.05985
rtoes 2.02088
lfemur 15.1855 -6.03443 -28.5526
ltibia 19.2893
lfoot -7.36867 -8.35546
ltoes -21.3464
